<?xml version="1.0" encoding="UTF-8" standalone="no"?>
<!DOCTYPE svg PUBLIC "-//W3C//DTD SVG 1.1//EN" "http://www.w3.org/Graphics/SVG/1.1/DTD/svg11.dtd">
<svg width="100%" height="100%" viewBox="0 0 640 160" version="1.1" xmlns="http://www.w3.org/2000/svg" xmlns:xlink="http://www.w3.org/1999/xlink" xml:space="preserve" xmlns:serif="http://www.serif.com/" style="fill-rule:evenodd;clip-rule:evenodd;stroke-linejoin:round;stroke-miterlimit:2;">
    <path d="M170.736,76.568L170.736,83.432C170.736,86.395 168.331,88.8 165.368,88.8C162.405,88.8 160,86.395 160,83.432L160,76.568C160,73.605 162.405,71.2 165.368,71.2C168.331,71.2 170.736,73.605 170.736,76.568Z"/>
    <path d="M190.608,70.968L190.608,89.032C190.608,91.995 188.203,94.4 185.24,94.4C182.277,94.4 179.872,91.995 179.872,89.032L179.872,70.968C179.872,68.005 182.277,65.6 185.24,65.6C188.203,65.6 190.608,68.005 190.608,70.968Z"/>
    <path d="M210.48,42.968L210.48,117.032C210.48,119.995 208.075,122.4 205.112,122.4C202.149,122.4 199.744,119.995 199.744,117.032L199.744,42.968C199.744,40.005 202.149,37.6 205.112,37.6C208.075,37.6 210.48,40.005 210.48,42.968Z"/>
    <path d="M230.368,59.768L230.368,100.232C230.368,103.195 227.963,105.6 225,105.6C222.037,105.6 219.632,103.195 219.632,100.232L219.632,59.768C219.632,56.805 222.037,54.4 225,54.4C227.963,54.4 230.368,56.805 230.368,59.768Z"/>
    <path d="M250.24,48.568L250.24,111.432C250.24,114.395 247.835,116.8 244.872,116.8C241.909,116.8 239.504,114.395 239.504,111.432L239.504,48.568C239.504,45.605 241.909,43.2 244.872,43.2C247.835,43.2 250.24,45.605 250.24,48.568Z"/>
    <path d="M270.112,76.568L270.112,83.432C270.112,86.395 267.707,88.8 264.744,88.8C261.781,88.8 259.376,86.395 259.376,83.432L259.376,76.568C259.376,73.605 261.781,71.2 264.744,71.2C267.707,71.2 270.112,73.605 270.112,76.568Z"/>
    <path d="M289.984,59.768L289.984,100.232C289.984,103.195 287.579,105.6 284.616,105.6C281.653,105.6 279.248,103.195 279.248,100.232L279.248,59.768C279.248,56.805 281.653,54.4 284.616,54.4C287.579,54.4 289.984,56.805 289.984,59.768Z"/>
    <path d="M309.872,70.968L309.872,89.032C309.872,91.995 307.467,94.4 304.504,94.4C301.541,94.4 299.136,91.995 299.136,89.032L299.136,70.968C299.136,68.005 301.541,65.6 304.504,65.6C307.467,65.6 309.872,68.005 309.872,70.968Z"/>
    <path d="M329.744,54.168L329.744,105.832C329.744,108.795 327.339,111.2 324.376,111.2C321.413,111.2 319.008,108.795 319.008,105.832L319.008,54.168C319.008,51.205 321.413,48.8 324.376,48.8C327.339,48.8 329.744,51.205 329.744,54.168Z"/>
    <path d="M349.616,48.568L349.616,111.432C349.616,114.395 347.211,116.8 344.248,116.8C341.285,116.8 338.88,114.395 338.88,111.432L338.88,48.568C338.88,45.605 341.285,43.2 344.248,43.2C347.211,43.2 349.616,45.605 349.616,48.568Z"/>
    <path d="M369.488,54.168L369.488,105.832C369.488,108.795 367.083,111.2 364.12,111.2C361.157,111.2 358.752,108.795 358.752,105.832L358.752,54.168C358.752,51.205 361.157,48.8 364.12,48.8C367.083,48.8 369.488,51.205 369.488,54.168Z"/>
    <path d="M389.36,37.368L389.36,122.632C389.36,125.595 386.955,128 383.992,128C381.029,128 378.624,125.595 378.624,122.632L378.624,37.368C378.624,34.405 381.029,32 383.992,32C386.955,32 389.36,34.405 389.36,37.368Z"/>
    <path d="M409.248,70.968L409.248,89.032C409.248,91.995 406.843,94.4 403.88,94.4C400.917,94.4 398.512,91.995 398.512,89.032L398.512,70.968C398.512,68.005 400.917,65.6 403.88,65.6C406.843,65.6 409.248,68.005 409.248,70.968Z"/>
    <path d="M429.12,48.568L429.12,111.432C429.12,114.395 426.715,116.8 423.752,116.8C420.789,116.8 418.384,114.395 418.384,111.432L418.384,48.568C418.384,45.605 420.789,43.2 423.752,43.2C426.715,43.2 429.12,45.605 429.12,48.568Z"/>
    <path d="M448.992,54.168L448.992,105.832C448.992,108.795 446.587,111.2 443.624,111.2C440.661,111.2 438.256,108.795 438.256,105.832L438.256,54.168C438.256,51.205 440.661,48.8 443.624,48.8C446.587,48.8 448.992,51.205 448.992,54.168Z"/>
    <path d="M468.864,59.768L468.864,100.232C468.864,103.195 466.459,105.6 463.496,105.6C460.533,105.6 458.128,103.195 458.128,100.232L458.128,59.768C458.128,56.805 460.533,54.4 463.496,54.4C466.459,54.4 468.864,56.805 468.864,59.768Z"/>
    <path d="M488.752,54.168L488.752,105.832C488.752,108.795 486.347,111.2 483.384,111.2C480.421,111.2 478.016,108.795 478.016,105.832L478.016,54.168C478.016,51.205 480.421,48.8 483.384,48.8C486.347,48.8 488.752,51.205 488.752,54.168Z"/>
    <path d="M508.624,42.968L508.624,117.032C508.624,119.995 506.219,122.4 503.256,122.4C500.293,122.4 497.888,119.995 497.888,117.032L497.888,42.968C497.888,40.005 500.293,37.6 503.256,37.6C506.219,37.6 508.624,40.005 508.624,42.968Z"/>
    <path d="M528.496,65.368L528.496,94.632C528.496,97.595 526.091,100 523.128,100C520.165,100 517.76,97.595 517.76,94.632L517.76,65.368C517.76,62.405 520.165,60 523.128,60C526.091,60 528.496,62.405 528.496,65.368Z"/>
    <path d="M548.368,42.968L548.368,117.032C548.368,119.995 545.963,122.4 543,122.4C540.037,122.4 537.632,119.995 537.632,117.032L537.632,42.968C537.632,40.005 540.037,37.6 543,37.6C545.963,37.6 548.368,40.005 548.368,42.968Z"/>
    <path d="M568.24,65.368L568.24,94.632C568.24,97.595 565.835,100 562.872,100C559.909,100 557.504,97.595 557.504,94.632L557.504,65.368C557.504,62.405 559.909,60 562.872,60C565.835,60 568.24,62.405 568.24,65.368Z"/>
    <path d="M588.128,65.368L588.128,94.632C588.128,97.595 585.723,100 582.76,100C579.797,100 577.392,97.595 577.392,94.632L577.392,65.368C577.392,62.405 579.797,60 582.76,60C585.723,60 588.128,62.405 588.128,65.368Z"/>
    <path d="M608,76.568L608,83.432C608,86.395 605.595,88.8 602.632,88.8C599.669,88.8 597.264,86.395 597.264,83.432L597.264,76.568C597.264,73.605 599.669,71.2 602.632,71.2C605.595,71.2 608,73.605 608,76.568Z"/>
    <g transform="matrix(1,0,0,1,32,32)">
        <path d="M48,0C74.332,-0 96,21.668 96,48C96,74.332 74.332,96 48,96C21.668,96 0,74.332 0,48C-0,21.668 21.668,0 48,0M69.968,69.12C70.745,67.829 70.418,66.14 69.216,65.232C68.97,65.052 68.713,64.887 68.448,64.736C65.454,62.953 62.279,61.494 58.976,60.384C53.006,58.429 46.762,57.436 40.48,57.44C38.352,57.552 36.208,57.632 34.08,57.808C30.268,58.146 26.483,58.745 22.752,59.6C22.458,59.662 22.169,59.747 21.888,59.856C20.571,60.383 19.817,61.796 20.112,63.184C20.334,64.588 21.57,65.625 22.992,65.6C23.467,65.585 23.939,65.521 24.4,65.408C28.955,64.383 33.592,63.767 38.256,63.568C41.867,63.42 45.483,63.618 49.056,64.16C54.844,65.007 60.414,66.969 65.456,69.936C65.714,70.096 65.981,70.24 66.256,70.368C67.613,70.965 69.22,70.454 69.984,69.184M75.856,56C76.897,54.255 76.337,51.964 74.608,50.896L74.048,50.56C70.324,48.359 66.363,46.587 62.24,45.28C54.131,42.68 45.628,41.527 37.12,41.872C33.142,42.005 29.185,42.497 25.296,43.344C23.696,43.696 22.096,44.112 20.592,44.576C19.1,45.047 18.075,46.435 18.064,48C18.029,49.534 18.948,50.938 20.368,51.52C21.231,51.83 22.177,51.83 23.04,51.52C28.437,49.957 34.029,49.171 39.648,49.184C43.894,49.187 48.131,49.584 52.304,50.368C57.63,51.324 62.791,53.038 67.632,55.456C68.688,56 69.712,56.608 70.752,57.184C72.479,58.246 74.773,57.714 75.856,56M76.416,42.416C77.115,42.841 77.918,43.066 78.736,43.066C81.185,43.066 83.2,41.051 83.2,38.602C83.2,38.594 83.2,38.585 83.2,38.576C83.2,38.256 83.2,37.936 83.072,37.616C82.793,36.351 81.974,35.269 80.832,34.656C77.574,32.772 74.139,31.212 70.576,30C61.873,27.091 52.775,25.532 43.6,25.376C39.863,25.264 36.123,25.376 32.4,25.712C28.89,26.007 25.405,26.542 21.968,27.312C20.576,27.632 19.2,27.984 17.84,28.432C16.021,29.05 14.813,30.8 14.88,32.72C14.926,34.654 16.224,36.349 18.08,36.896C18.916,37.136 19.804,37.136 20.64,36.896C22.032,36.528 23.44,36.144 24.848,35.84C28.675,35.044 32.559,34.557 36.464,34.384C39.875,34.194 43.293,34.194 46.704,34.384C49.982,34.581 53.246,34.965 56.48,35.536C61.126,36.317 65.678,37.577 70.064,39.296C72.267,40.218 74.405,41.287 76.464,42.496" style="fill-rule:nonzero;"/>
    </g>
</svg>
