<?xml version="1.0" encoding="UTF-8" standalone="no"?>
<!DOCTYPE svg PUBLIC "-//W3C//DTD SVG 1.1//EN" "http://www.w3.org/Graphics/SVG/1.1/DTD/svg11.dtd">
<svg width="100%" height="100%" viewBox="0 0 640 160" version="1.1" xmlns="http://www.w3.org/2000/svg" xmlns:xlink="http://www.w3.org/1999/xlink" xml:space="preserve" xmlns:serif="http://www.serif.com/" style="fill-rule:evenodd;clip-rule:evenodd;stroke-linejoin:round;stroke-miterlimit:2;">
    <path d="M170.736,76.568L170.736,83.432C170.736,86.395 168.331,88.8 165.368,88.8C162.405,88.8 160,86.395 160,83.432L160,76.568C160,73.605 162.405,71.2 165.368,71.2C168.331,71.2 170.736,73.605 170.736,76.568Z"/>
    <path d="M190.608,37.368L190.608,122.632C190.608,125.595 188.203,128 185.24,128C182.277,128 179.872,125.595 179.872,122.632L179.872,37.368C179.872,34.405 182.277,32 185.24,32C188.203,32 190.608,34.405 190.608,37.368Z"/>
    <path d="M210.48,54.168L210.48,105.832C210.48,108.795 208.075,111.2 205.112,111.2C202.149,111.2 199.744,108.795 199.744,105.832L199.744,54.168C199.744,51.205 202.149,48.8 205.112,48.8C208.075,48.8 210.48,51.205 210.48,54.168Z"/>
    <path d="M230.368,59.768L230.368,100.232C230.368,103.195 227.963,105.6 225,105.6C222.037,105.6 219.632,103.195 219.632,100.232L219.632,59.768C219.632,56.805 222.037,54.4 225,54.4C227.963,54.4 230.368,56.805 230.368,59.768Z"/>
    <path d="M250.24,65.368L250.24,94.632C250.24,97.595 247.835,100 244.872,100C241.909,100 239.504,97.595 239.504,94.632L239.504,65.368C239.504,62.405 241.909,60 244.872,60C247.835,60 250.24,62.405 250.24,65.368Z"/>
    <path d="M270.112,37.368L270.112,122.632C270.112,125.595 267.707,128 264.744,128C261.781,128 259.376,125.595 259.376,122.632L259.376,37.368C259.376,34.405 261.781,32 264.744,32C267.707,32 270.112,34.405 270.112,37.368Z"/>
    <path d="M289.984,70.968L289.984,89.032C289.984,91.995 287.579,94.4 284.616,94.4C281.653,94.4 279.248,91.995 279.248,89.032L279.248,70.968C279.248,68.005 281.653,65.6 284.616,65.6C287.579,65.6 289.984,68.005 289.984,70.968Z"/>
    <path d="M309.872,70.968L309.872,89.032C309.872,91.995 307.467,94.4 304.504,94.4C301.541,94.4 299.136,91.995 299.136,89.032L299.136,70.968C299.136,68.005 301.541,65.6 304.504,65.6C307.467,65.6 309.872,68.005 309.872,70.968Z"/>
    <path d="M329.744,65.368L329.744,94.632C329.744,97.595 327.339,100 324.376,100C321.413,100 319.008,97.595 319.008,94.632L319.008,65.368C319.008,62.405 321.413,60 324.376,60C327.339,60 329.744,62.405 329.744,65.368Z"/>
    <path d="M349.616,70.968L349.616,89.032C349.616,91.995 347.211,94.4 344.248,94.4C341.285,94.4 338.88,91.995 338.88,89.032L338.88,70.968C338.88,68.005 341.285,65.6 344.248,65.6C347.211,65.6 349.616,68.005 349.616,70.968Z"/>
    <path d="M369.488,42.968L369.488,117.032C369.488,119.995 367.083,122.4 364.12,122.4C361.157,122.4 358.752,119.995 358.752,117.032L358.752,42.968C358.752,40.005 361.157,37.6 364.12,37.6C367.083,37.6 369.488,40.005 369.488,42.968Z"/>
    <path d="M389.36,37.368L389.36,122.632C389.36,125.595 386.955,128 383.992,128C381.029,128 378.624,125.595 378.624,122.632L378.624,37.368C378.624,34.405 381.029,32 383.992,32C386.955,32 389.36,34.405 389.36,37.368Z"/>
    <path d="M409.248,48.568L409.248,111.432C409.248,114.395 406.843,116.8 403.88,116.8C400.917,116.8 398.512,114.395 398.512,111.432L398.512,48.568C398.512,45.605 400.917,43.2 403.88,43.2C406.843,43.2 409.248,45.605 409.248,48.568Z"/>
    <path d="M429.12,42.968L429.12,117.032C429.12,119.995 426.715,122.4 423.752,122.4C420.789,122.4 418.384,119.995 418.384,117.032L418.384,42.968C418.384,40.005 420.789,37.6 423.752,37.6C426.715,37.6 429.12,40.005 429.12,42.968Z"/>
    <path d="M448.992,65.368L448.992,94.632C448.992,97.595 446.587,100 443.624,100C440.661,100 438.256,97.595 438.256,94.632L438.256,65.368C438.256,62.405 440.661,60 443.624,60C446.587,60 448.992,62.405 448.992,65.368Z"/>
    <path d="M468.864,70.968L468.864,89.032C468.864,91.995 466.459,94.4 463.496,94.4C460.533,94.4 458.128,91.995 458.128,89.032L458.128,70.968C458.128,68.005 460.533,65.6 463.496,65.6C466.459,65.6 468.864,68.005 468.864,70.968Z"/>
    <path d="M488.752,37.368L488.752,122.632C488.752,125.595 486.347,128 483.384,128C480.421,128 478.016,125.595 478.016,122.632L478.016,37.368C478.016,34.405 480.421,32 483.384,32C486.347,32 488.752,34.405 488.752,37.368Z"/>
    <path d="M508.624,76.568L508.624,83.432C508.624,86.395 506.219,88.8 503.256,88.8C500.293,88.8 497.888,86.395 497.888,83.432L497.888,76.568C497.888,73.605 500.293,71.2 503.256,71.2C506.219,71.2 508.624,73.605 508.624,76.568Z"/>
    <path d="M528.496,70.968L528.496,89.032C528.496,91.995 526.091,94.4 523.128,94.4C520.165,94.4 517.76,91.995 517.76,89.032L517.76,70.968C517.76,68.005 520.165,65.6 523.128,65.6C526.091,65.6 528.496,68.005 528.496,70.968Z"/>
    <path d="M548.368,70.968L548.368,89.032C548.368,91.995 545.963,94.4 543,94.4C540.037,94.4 537.632,91.995 537.632,89.032L537.632,70.968C537.632,68.005 540.037,65.6 543,65.6C545.963,65.6 548.368,68.005 548.368,70.968Z"/>
    <path d="M568.24,54.168L568.24,105.832C568.24,108.795 565.835,111.2 562.872,111.2C559.909,111.2 557.504,108.795 557.504,105.832L557.504,54.168C557.504,51.205 559.909,48.8 562.872,48.8C565.835,48.8 568.24,51.205 568.24,54.168Z"/>
    <path d="M588.128,37.368L588.128,122.632C588.128,125.595 585.723,128 582.76,128C579.797,128 577.392,125.595 577.392,122.632L577.392,37.368C577.392,34.405 579.797,32 582.76,32C585.723,32 588.128,34.405 588.128,37.368Z"/>
    <path d="M608,76.568L608,83.432C608,86.395 605.595,88.8 602.632,88.8C599.669,88.8 597.264,86.395 597.264,83.432L597.264,76.568C597.264,73.605 599.669,71.2 602.632,71.2C605.595,71.2 608,73.605 608,76.568Z"/>
    <g transform="matrix(1,0,0,1,32,32)">
        <path d="M48,0C74.332,-0 96,21.668 96,48C96,74.332 74.332,96 48,96C21.668,96 0,74.332 0,48C-0,21.668 21.668,0 48,0M69.968,69.12C70.745,67.829 70.418,66.14 69.216,65.232C68.97,65.052 68.713,64.887 68.448,64.736C65.454,62.953 62.279,61.494 58.976,60.384C53.006,58.429 46.762,57.436 40.48,57.44C38.352,57.552 36.208,57.632 34.08,57.808C30.268,58.146 26.483,58.745 22.752,59.6C22.458,59.662 22.169,59.747 21.888,59.856C20.571,60.383 19.817,61.796 20.112,63.184C20.334,64.588 21.57,65.625 22.992,65.6C23.467,65.585 23.939,65.521 24.4,65.408C28.955,64.383 33.592,63.767 38.256,63.568C41.867,63.42 45.483,63.618 49.056,64.16C54.844,65.007 60.414,66.969 65.456,69.936C65.714,70.096 65.981,70.24 66.256,70.368C67.613,70.965 69.22,70.454 69.984,69.184M75.856,56C76.897,54.255 76.337,51.964 74.608,50.896L74.048,50.56C70.324,48.359 66.363,46.587 62.24,45.28C54.131,42.68 45.628,41.527 37.12,41.872C33.142,42.005 29.185,42.497 25.296,43.344C23.696,43.696 22.096,44.112 20.592,44.576C19.1,45.047 18.075,46.435 18.064,48C18.029,49.534 18.948,50.938 20.368,51.52C21.231,51.83 22.177,51.83 23.04,51.52C28.437,49.957 34.029,49.171 39.648,49.184C43.894,49.187 48.131,49.584 52.304,50.368C57.63,51.324 62.791,53.038 67.632,55.456C68.688,56 69.712,56.608 70.752,57.184C72.479,58.246 74.773,57.714 75.856,56M76.416,42.416C77.115,42.841 77.918,43.066 78.736,43.066C81.185,43.066 83.2,41.051 83.2,38.602C83.2,38.594 83.2,38.585 83.2,38.576C83.2,38.256 83.2,37.936 83.072,37.616C82.793,36.351 81.974,35.269 80.832,34.656C77.574,32.772 74.139,31.212 70.576,30C61.873,27.091 52.775,25.532 43.6,25.376C39.863,25.264 36.123,25.376 32.4,25.712C28.89,26.007 25.405,26.542 21.968,27.312C20.576,27.632 19.2,27.984 17.84,28.432C16.021,29.05 14.813,30.8 14.88,32.72C14.926,34.654 16.224,36.349 18.08,36.896C18.916,37.136 19.804,37.136 20.64,36.896C22.032,36.528 23.44,36.144 24.848,35.84C28.675,35.044 32.559,34.557 36.464,34.384C39.875,34.194 43.293,34.194 46.704,34.384C49.982,34.581 53.246,34.965 56.48,35.536C61.126,36.317 65.678,37.577 70.064,39.296C72.267,40.218 74.405,41.287 76.464,42.496" style="fill-rule:nonzero;"/>
    </g>
</svg>
