<?xml version="1.0" encoding="UTF-8" standalone="no"?>
<!DOCTYPE svg PUBLIC "-//W3C//DTD SVG 1.1//EN" "http://www.w3.org/Graphics/SVG/1.1/DTD/svg11.dtd">
<svg width="100%" height="100%" viewBox="0 0 640 160" version="1.1" xmlns="http://www.w3.org/2000/svg" xmlns:xlink="http://www.w3.org/1999/xlink" xml:space="preserve" xmlns:serif="http://www.serif.com/" style="fill-rule:evenodd;clip-rule:evenodd;stroke-linejoin:round;stroke-miterlimit:2;">
    <path d="M170.736,76.568L170.736,83.432C170.736,86.395 168.331,88.8 165.368,88.8C162.405,88.8 160,86.395 160,83.432L160,76.568C160,73.605 162.405,71.2 165.368,71.2C168.331,71.2 170.736,73.605 170.736,76.568Z"/>
    <path d="M190.608,65.368L190.608,94.632C190.608,97.595 188.203,100 185.24,100C182.277,100 179.872,97.595 179.872,94.632L179.872,65.368C179.872,62.405 182.277,60 185.24,60C188.203,60 190.608,62.405 190.608,65.368Z"/>
    <path d="M210.48,65.368L210.48,94.632C210.48,97.595 208.075,100 205.112,100C202.149,100 199.744,97.595 199.744,94.632L199.744,65.368C199.744,62.405 202.149,60 205.112,60C208.075,60 210.48,62.405 210.48,65.368Z"/>
    <path d="M230.368,42.968L230.368,117.032C230.368,119.995 227.963,122.4 225,122.4C222.037,122.4 219.632,119.995 219.632,117.032L219.632,42.968C219.632,40.005 222.037,37.6 225,37.6C227.963,37.6 230.368,40.005 230.368,42.968Z"/>
    <path d="M250.24,37.368L250.24,122.632C250.24,125.595 247.835,128 244.872,128C241.909,128 239.504,125.595 239.504,122.632L239.504,37.368C239.504,34.405 241.909,32 244.872,32C247.835,32 250.24,34.405 250.24,37.368Z"/>
    <path d="M270.112,48.568L270.112,111.432C270.112,114.395 267.707,116.8 264.744,116.8C261.781,116.8 259.376,114.395 259.376,111.432L259.376,48.568C259.376,45.605 261.781,43.2 264.744,43.2C267.707,43.2 270.112,45.605 270.112,48.568Z"/>
    <path d="M289.984,42.968L289.984,117.032C289.984,119.995 287.579,122.4 284.616,122.4C281.653,122.4 279.248,119.995 279.248,117.032L279.248,42.968C279.248,40.005 281.653,37.6 284.616,37.6C287.579,37.6 289.984,40.005 289.984,42.968Z"/>
    <path d="M309.872,37.368L309.872,122.632C309.872,125.595 307.467,128 304.504,128C301.541,128 299.136,125.595 299.136,122.632L299.136,37.368C299.136,34.405 301.541,32 304.504,32C307.467,32 309.872,34.405 309.872,37.368Z"/>
    <path d="M329.744,65.368L329.744,94.632C329.744,97.595 327.339,100 324.376,100C321.413,100 319.008,97.595 319.008,94.632L319.008,65.368C319.008,62.405 321.413,60 324.376,60C327.339,60 329.744,62.405 329.744,65.368Z"/>
    <path d="M349.616,65.368L349.616,94.632C349.616,97.595 347.211,100 344.248,100C341.285,100 338.88,97.595 338.88,94.632L338.88,65.368C338.88,62.405 341.285,60 344.248,60C347.211,60 349.616,62.405 349.616,65.368Z"/>
    <path d="M369.488,42.968L369.488,117.032C369.488,119.995 367.083,122.4 364.12,122.4C361.157,122.4 358.752,119.995 358.752,117.032L358.752,42.968C358.752,40.005 361.157,37.6 364.12,37.6C367.083,37.6 369.488,40.005 369.488,42.968Z"/>
    <path d="M389.36,37.368L389.36,122.632C389.36,125.595 386.955,128 383.992,128C381.029,128 378.624,125.595 378.624,122.632L378.624,37.368C378.624,34.405 381.029,32 383.992,32C386.955,32 389.36,34.405 389.36,37.368Z"/>
    <path d="M409.248,76.568L409.248,83.432C409.248,86.395 406.843,88.8 403.88,88.8C400.917,88.8 398.512,86.395 398.512,83.432L398.512,76.568C398.512,73.605 400.917,71.2 403.88,71.2C406.843,71.2 409.248,73.605 409.248,76.568Z"/>
    <path d="M429.12,76.568L429.12,83.432C429.12,86.395 426.715,88.8 423.752,88.8C420.789,88.8 418.384,86.395 418.384,83.432L418.384,76.568C418.384,73.605 420.789,71.2 423.752,71.2C426.715,71.2 429.12,73.605 429.12,76.568Z"/>
    <path d="M448.992,54.168L448.992,105.832C448.992,108.795 446.587,111.2 443.624,111.2C440.661,111.2 438.256,108.795 438.256,105.832L438.256,54.168C438.256,51.205 440.661,48.8 443.624,48.8C446.587,48.8 448.992,51.205 448.992,54.168Z"/>
    <path d="M468.864,76.568L468.864,83.432C468.864,86.395 466.459,88.8 463.496,88.8C460.533,88.8 458.128,86.395 458.128,83.432L458.128,76.568C458.128,73.605 460.533,71.2 463.496,71.2C466.459,71.2 468.864,73.605 468.864,76.568Z"/>
    <path d="M488.752,42.968L488.752,117.032C488.752,119.995 486.347,122.4 483.384,122.4C480.421,122.4 478.016,119.995 478.016,117.032L478.016,42.968C478.016,40.005 480.421,37.6 483.384,37.6C486.347,37.6 488.752,40.005 488.752,42.968Z"/>
    <path d="M508.624,42.968L508.624,117.032C508.624,119.995 506.219,122.4 503.256,122.4C500.293,122.4 497.888,119.995 497.888,117.032L497.888,42.968C497.888,40.005 500.293,37.6 503.256,37.6C506.219,37.6 508.624,40.005 508.624,42.968Z"/>
    <path d="M528.496,76.568L528.496,83.432C528.496,86.395 526.091,88.8 523.128,88.8C520.165,88.8 517.76,86.395 517.76,83.432L517.76,76.568C517.76,73.605 520.165,71.2 523.128,71.2C526.091,71.2 528.496,73.605 528.496,76.568Z"/>
    <path d="M548.368,42.968L548.368,117.032C548.368,119.995 545.963,122.4 543,122.4C540.037,122.4 537.632,119.995 537.632,117.032L537.632,42.968C537.632,40.005 540.037,37.6 543,37.6C545.963,37.6 548.368,40.005 548.368,42.968Z"/>
    <path d="M568.24,70.968L568.24,89.032C568.24,91.995 565.835,94.4 562.872,94.4C559.909,94.4 557.504,91.995 557.504,89.032L557.504,70.968C557.504,68.005 559.909,65.6 562.872,65.6C565.835,65.6 568.24,68.005 568.24,70.968Z"/>
    <path d="M588.128,65.368L588.128,94.632C588.128,97.595 585.723,100 582.76,100C579.797,100 577.392,97.595 577.392,94.632L577.392,65.368C577.392,62.405 579.797,60 582.76,60C585.723,60 588.128,62.405 588.128,65.368Z"/>
    <path d="M608,76.568L608,83.432C608,86.395 605.595,88.8 602.632,88.8C599.669,88.8 597.264,86.395 597.264,83.432L597.264,76.568C597.264,73.605 599.669,71.2 602.632,71.2C605.595,71.2 608,73.605 608,76.568Z"/>
    <g transform="matrix(1,0,0,1,32,32)">
        <path d="M48,0C74.332,-0 96,21.668 96,48C96,74.332 74.332,96 48,96C21.668,96 0,74.332 0,48C-0,21.668 21.668,0 48,0M69.968,69.12C70.745,67.829 70.418,66.14 69.216,65.232C68.97,65.052 68.713,64.887 68.448,64.736C65.454,62.953 62.279,61.494 58.976,60.384C53.006,58.429 46.762,57.436 40.48,57.44C38.352,57.552 36.208,57.632 34.08,57.808C30.268,58.146 26.483,58.745 22.752,59.6C22.458,59.662 22.169,59.747 21.888,59.856C20.571,60.383 19.817,61.796 20.112,63.184C20.334,64.588 21.57,65.625 22.992,65.6C23.467,65.585 23.939,65.521 24.4,65.408C28.955,64.383 33.592,63.767 38.256,63.568C41.867,63.42 45.483,63.618 49.056,64.16C54.844,65.007 60.414,66.969 65.456,69.936C65.714,70.096 65.981,70.24 66.256,70.368C67.613,70.965 69.22,70.454 69.984,69.184M75.856,56C76.897,54.255 76.337,51.964 74.608,50.896L74.048,50.56C70.324,48.359 66.363,46.587 62.24,45.28C54.131,42.68 45.628,41.527 37.12,41.872C33.142,42.005 29.185,42.497 25.296,43.344C23.696,43.696 22.096,44.112 20.592,44.576C19.1,45.047 18.075,46.435 18.064,48C18.029,49.534 18.948,50.938 20.368,51.52C21.231,51.83 22.177,51.83 23.04,51.52C28.437,49.957 34.029,49.171 39.648,49.184C43.894,49.187 48.131,49.584 52.304,50.368C57.63,51.324 62.791,53.038 67.632,55.456C68.688,56 69.712,56.608 70.752,57.184C72.479,58.246 74.773,57.714 75.856,56M76.416,42.416C77.115,42.841 77.918,43.066 78.736,43.066C81.185,43.066 83.2,41.051 83.2,38.602C83.2,38.594 83.2,38.585 83.2,38.576C83.2,38.256 83.2,37.936 83.072,37.616C82.793,36.351 81.974,35.269 80.832,34.656C77.574,32.772 74.139,31.212 70.576,30C61.873,27.091 52.775,25.532 43.6,25.376C39.863,25.264 36.123,25.376 32.4,25.712C28.89,26.007 25.405,26.542 21.968,27.312C20.576,27.632 19.2,27.984 17.84,28.432C16.021,29.05 14.813,30.8 14.88,32.72C14.926,34.654 16.224,36.349 18.08,36.896C18.916,37.136 19.804,37.136 20.64,36.896C22.032,36.528 23.44,36.144 24.848,35.84C28.675,35.044 32.559,34.557 36.464,34.384C39.875,34.194 43.293,34.194 46.704,34.384C49.982,34.581 53.246,34.965 56.48,35.536C61.126,36.317 65.678,37.577 70.064,39.296C72.267,40.218 74.405,41.287 76.464,42.496" style="fill-rule:nonzero;"/>
    </g>
</svg>
