<?xml version="1.0" encoding="UTF-8" standalone="no"?>
<!DOCTYPE svg PUBLIC "-//W3C//DTD SVG 1.1//EN" "http://www.w3.org/Graphics/SVG/1.1/DTD/svg11.dtd">
<svg width="100%" height="100%" viewBox="0 0 640 160" version="1.1" xmlns="http://www.w3.org/2000/svg" xmlns:xlink="http://www.w3.org/1999/xlink" xml:space="preserve" xmlns:serif="http://www.serif.com/" style="fill-rule:evenodd;clip-rule:evenodd;stroke-linejoin:round;stroke-miterlimit:2;">
    <path d="M170.736,76.568L170.736,83.432C170.736,86.395 168.331,88.8 165.368,88.8C162.405,88.8 160,86.395 160,83.432L160,76.568C160,73.605 162.405,71.2 165.368,71.2C168.331,71.2 170.736,73.605 170.736,76.568Z"/>
    <path d="M190.608,76.568L190.608,83.432C190.608,86.395 188.203,88.8 185.24,88.8C182.277,88.8 179.872,86.395 179.872,83.432L179.872,76.568C179.872,73.605 182.277,71.2 185.24,71.2C188.203,71.2 190.608,73.605 190.608,76.568Z"/>
    <path d="M210.48,37.368L210.48,122.632C210.48,125.595 208.075,128 205.112,128C202.149,128 199.744,125.595 199.744,122.632L199.744,37.368C199.744,34.405 202.149,32 205.112,32C208.075,32 210.48,34.405 210.48,37.368Z"/>
    <path d="M230.368,59.768L230.368,100.232C230.368,103.195 227.963,105.6 225,105.6C222.037,105.6 219.632,103.195 219.632,100.232L219.632,59.768C219.632,56.805 222.037,54.4 225,54.4C227.963,54.4 230.368,56.805 230.368,59.768Z"/>
    <path d="M250.24,37.368L250.24,122.632C250.24,125.595 247.835,128 244.872,128C241.909,128 239.504,125.595 239.504,122.632L239.504,37.368C239.504,34.405 241.909,32 244.872,32C247.835,32 250.24,34.405 250.24,37.368Z"/>
    <path d="M270.112,65.368L270.112,94.632C270.112,97.595 267.707,100 264.744,100C261.781,100 259.376,97.595 259.376,94.632L259.376,65.368C259.376,62.405 261.781,60 264.744,60C267.707,60 270.112,62.405 270.112,65.368Z"/>
    <path d="M289.984,37.368L289.984,122.632C289.984,125.595 287.579,128 284.616,128C281.653,128 279.248,125.595 279.248,122.632L279.248,37.368C279.248,34.405 281.653,32 284.616,32C287.579,32 289.984,34.405 289.984,37.368Z"/>
    <path d="M309.872,54.168L309.872,105.832C309.872,108.795 307.467,111.2 304.504,111.2C301.541,111.2 299.136,108.795 299.136,105.832L299.136,54.168C299.136,51.205 301.541,48.8 304.504,48.8C307.467,48.8 309.872,51.205 309.872,54.168Z"/>
    <path d="M329.744,70.968L329.744,89.032C329.744,91.995 327.339,94.4 324.376,94.4C321.413,94.4 319.008,91.995 319.008,89.032L319.008,70.968C319.008,68.005 321.413,65.6 324.376,65.6C327.339,65.6 329.744,68.005 329.744,70.968Z"/>
    <path d="M349.616,59.768L349.616,100.232C349.616,103.195 347.211,105.6 344.248,105.6C341.285,105.6 338.88,103.195 338.88,100.232L338.88,59.768C338.88,56.805 341.285,54.4 344.248,54.4C347.211,54.4 349.616,56.805 349.616,59.768Z"/>
    <path d="M369.488,65.368L369.488,94.632C369.488,97.595 367.083,100 364.12,100C361.157,100 358.752,97.595 358.752,94.632L358.752,65.368C358.752,62.405 361.157,60 364.12,60C367.083,60 369.488,62.405 369.488,65.368Z"/>
    <path d="M389.36,37.368L389.36,122.632C389.36,125.595 386.955,128 383.992,128C381.029,128 378.624,125.595 378.624,122.632L378.624,37.368C378.624,34.405 381.029,32 383.992,32C386.955,32 389.36,34.405 389.36,37.368Z"/>
    <path d="M409.248,37.368L409.248,122.632C409.248,125.595 406.843,128 403.88,128C400.917,128 398.512,125.595 398.512,122.632L398.512,37.368C398.512,34.405 400.917,32 403.88,32C406.843,32 409.248,34.405 409.248,37.368Z"/>
    <path d="M429.12,54.168L429.12,105.832C429.12,108.795 426.715,111.2 423.752,111.2C420.789,111.2 418.384,108.795 418.384,105.832L418.384,54.168C418.384,51.205 420.789,48.8 423.752,48.8C426.715,48.8 429.12,51.205 429.12,54.168Z"/>
    <path d="M448.992,54.168L448.992,105.832C448.992,108.795 446.587,111.2 443.624,111.2C440.661,111.2 438.256,108.795 438.256,105.832L438.256,54.168C438.256,51.205 440.661,48.8 443.624,48.8C446.587,48.8 448.992,51.205 448.992,54.168Z"/>
    <path d="M468.864,70.968L468.864,89.032C468.864,91.995 466.459,94.4 463.496,94.4C460.533,94.4 458.128,91.995 458.128,89.032L458.128,70.968C458.128,68.005 460.533,65.6 463.496,65.6C466.459,65.6 468.864,68.005 468.864,70.968Z"/>
    <path d="M488.752,76.568L488.752,83.432C488.752,86.395 486.347,88.8 483.384,88.8C480.421,88.8 478.016,86.395 478.016,83.432L478.016,76.568C478.016,73.605 480.421,71.2 483.384,71.2C486.347,71.2 488.752,73.605 488.752,76.568Z"/>
    <path d="M508.624,76.568L508.624,83.432C508.624,86.395 506.219,88.8 503.256,88.8C500.293,88.8 497.888,86.395 497.888,83.432L497.888,76.568C497.888,73.605 500.293,71.2 503.256,71.2C506.219,71.2 508.624,73.605 508.624,76.568Z"/>
    <path d="M528.496,59.768L528.496,100.232C528.496,103.195 526.091,105.6 523.128,105.6C520.165,105.6 517.76,103.195 517.76,100.232L517.76,59.768C517.76,56.805 520.165,54.4 523.128,54.4C526.091,54.4 528.496,56.805 528.496,59.768Z"/>
    <path d="M548.368,37.368L548.368,122.632C548.368,125.595 545.963,128 543,128C540.037,128 537.632,125.595 537.632,122.632L537.632,37.368C537.632,34.405 540.037,32 543,32C545.963,32 548.368,34.405 548.368,37.368Z"/>
    <path d="M568.24,42.968L568.24,117.032C568.24,119.995 565.835,122.4 562.872,122.4C559.909,122.4 557.504,119.995 557.504,117.032L557.504,42.968C557.504,40.005 559.909,37.6 562.872,37.6C565.835,37.6 568.24,40.005 568.24,42.968Z"/>
    <path d="M588.128,54.168L588.128,105.832C588.128,108.795 585.723,111.2 582.76,111.2C579.797,111.2 577.392,108.795 577.392,105.832L577.392,54.168C577.392,51.205 579.797,48.8 582.76,48.8C585.723,48.8 588.128,51.205 588.128,54.168Z"/>
    <path d="M608,76.568L608,83.432C608,86.395 605.595,88.8 602.632,88.8C599.669,88.8 597.264,86.395 597.264,83.432L597.264,76.568C597.264,73.605 599.669,71.2 602.632,71.2C605.595,71.2 608,73.605 608,76.568Z"/>
    <g transform="matrix(1,0,0,1,32,32)">
        <path d="M48,0C74.332,-0 96,21.668 96,48C96,74.332 74.332,96 48,96C21.668,96 0,74.332 0,48C-0,21.668 21.668,0 48,0M69.968,69.12C70.745,67.829 70.418,66.14 69.216,65.232C68.97,65.052 68.713,64.887 68.448,64.736C65.454,62.953 62.279,61.494 58.976,60.384C53.006,58.429 46.762,57.436 40.48,57.44C38.352,57.552 36.208,57.632 34.08,57.808C30.268,58.146 26.483,58.745 22.752,59.6C22.458,59.662 22.169,59.747 21.888,59.856C20.571,60.383 19.817,61.796 20.112,63.184C20.334,64.588 21.57,65.625 22.992,65.6C23.467,65.585 23.939,65.521 24.4,65.408C28.955,64.383 33.592,63.767 38.256,63.568C41.867,63.42 45.483,63.618 49.056,64.16C54.844,65.007 60.414,66.969 65.456,69.936C65.714,70.096 65.981,70.24 66.256,70.368C67.613,70.965 69.22,70.454 69.984,69.184M75.856,56C76.897,54.255 76.337,51.964 74.608,50.896L74.048,50.56C70.324,48.359 66.363,46.587 62.24,45.28C54.131,42.68 45.628,41.527 37.12,41.872C33.142,42.005 29.185,42.497 25.296,43.344C23.696,43.696 22.096,44.112 20.592,44.576C19.1,45.047 18.075,46.435 18.064,48C18.029,49.534 18.948,50.938 20.368,51.52C21.231,51.83 22.177,51.83 23.04,51.52C28.437,49.957 34.029,49.171 39.648,49.184C43.894,49.187 48.131,49.584 52.304,50.368C57.63,51.324 62.791,53.038 67.632,55.456C68.688,56 69.712,56.608 70.752,57.184C72.479,58.246 74.773,57.714 75.856,56M76.416,42.416C77.115,42.841 77.918,43.066 78.736,43.066C81.185,43.066 83.2,41.051 83.2,38.602C83.2,38.594 83.2,38.585 83.2,38.576C83.2,38.256 83.2,37.936 83.072,37.616C82.793,36.351 81.974,35.269 80.832,34.656C77.574,32.772 74.139,31.212 70.576,30C61.873,27.091 52.775,25.532 43.6,25.376C39.863,25.264 36.123,25.376 32.4,25.712C28.89,26.007 25.405,26.542 21.968,27.312C20.576,27.632 19.2,27.984 17.84,28.432C16.021,29.05 14.813,30.8 14.88,32.72C14.926,34.654 16.224,36.349 18.08,36.896C18.916,37.136 19.804,37.136 20.64,36.896C22.032,36.528 23.44,36.144 24.848,35.84C28.675,35.044 32.559,34.557 36.464,34.384C39.875,34.194 43.293,34.194 46.704,34.384C49.982,34.581 53.246,34.965 56.48,35.536C61.126,36.317 65.678,37.577 70.064,39.296C72.267,40.218 74.405,41.287 76.464,42.496" style="fill-rule:nonzero;"/>
    </g>
</svg>
