<?xml version="1.0" encoding="UTF-8" standalone="no"?>
<!DOCTYPE svg PUBLIC "-//W3C//DTD SVG 1.1//EN" "http://www.w3.org/Graphics/SVG/1.1/DTD/svg11.dtd">
<svg width="100%" height="100%" viewBox="0 0 640 160" version="1.1" xmlns="http://www.w3.org/2000/svg" xmlns:xlink="http://www.w3.org/1999/xlink" xml:space="preserve" xmlns:serif="http://www.serif.com/" style="fill-rule:evenodd;clip-rule:evenodd;stroke-linejoin:round;stroke-miterlimit:2;">
    <path d="M170.736,76.568L170.736,83.432C170.736,86.395 168.331,88.8 165.368,88.8C162.405,88.8 160,86.395 160,83.432L160,76.568C160,73.605 162.405,71.2 165.368,71.2C168.331,71.2 170.736,73.605 170.736,76.568Z"/>
    <path d="M190.608,76.568L190.608,83.432C190.608,86.395 188.203,88.8 185.24,88.8C182.277,88.8 179.872,86.395 179.872,83.432L179.872,76.568C179.872,73.605 182.277,71.2 185.24,71.2C188.203,71.2 190.608,73.605 190.608,76.568Z"/>
    <path d="M210.48,59.768L210.48,100.232C210.48,103.195 208.075,105.6 205.112,105.6C202.149,105.6 199.744,103.195 199.744,100.232L199.744,59.768C199.744,56.805 202.149,54.4 205.112,54.4C208.075,54.4 210.48,56.805 210.48,59.768Z"/>
    <path d="M230.368,37.368L230.368,122.632C230.368,125.595 227.963,128 225,128C222.037,128 219.632,125.595 219.632,122.632L219.632,37.368C219.632,34.405 222.037,32 225,32C227.963,32 230.368,34.405 230.368,37.368Z"/>
    <path d="M250.24,76.568L250.24,83.432C250.24,86.395 247.835,88.8 244.872,88.8C241.909,88.8 239.504,86.395 239.504,83.432L239.504,76.568C239.504,73.605 241.909,71.2 244.872,71.2C247.835,71.2 250.24,73.605 250.24,76.568Z"/>
    <path d="M270.112,37.368L270.112,122.632C270.112,125.595 267.707,128 264.744,128C261.781,128 259.376,125.595 259.376,122.632L259.376,37.368C259.376,34.405 261.781,32 264.744,32C267.707,32 270.112,34.405 270.112,37.368Z"/>
    <path d="M289.984,37.368L289.984,122.632C289.984,125.595 287.579,128 284.616,128C281.653,128 279.248,125.595 279.248,122.632L279.248,37.368C279.248,34.405 281.653,32 284.616,32C287.579,32 289.984,34.405 289.984,37.368Z"/>
    <path d="M309.872,37.368L309.872,122.632C309.872,125.595 307.467,128 304.504,128C301.541,128 299.136,125.595 299.136,122.632L299.136,37.368C299.136,34.405 301.541,32 304.504,32C307.467,32 309.872,34.405 309.872,37.368Z"/>
    <path d="M329.744,76.568L329.744,83.432C329.744,86.395 327.339,88.8 324.376,88.8C321.413,88.8 319.008,86.395 319.008,83.432L319.008,76.568C319.008,73.605 321.413,71.2 324.376,71.2C327.339,71.2 329.744,73.605 329.744,76.568Z"/>
    <path d="M349.616,37.368L349.616,122.632C349.616,125.595 347.211,128 344.248,128C341.285,128 338.88,125.595 338.88,122.632L338.88,37.368C338.88,34.405 341.285,32 344.248,32C347.211,32 349.616,34.405 349.616,37.368Z"/>
    <path d="M369.488,59.768L369.488,100.232C369.488,103.195 367.083,105.6 364.12,105.6C361.157,105.6 358.752,103.195 358.752,100.232L358.752,59.768C358.752,56.805 361.157,54.4 364.12,54.4C367.083,54.4 369.488,56.805 369.488,59.768Z"/>
    <path d="M389.36,37.368L389.36,122.632C389.36,125.595 386.955,128 383.992,128C381.029,128 378.624,125.595 378.624,122.632L378.624,37.368C378.624,34.405 381.029,32 383.992,32C386.955,32 389.36,34.405 389.36,37.368Z"/>
    <path d="M409.248,48.568L409.248,111.432C409.248,114.395 406.843,116.8 403.88,116.8C400.917,116.8 398.512,114.395 398.512,111.432L398.512,48.568C398.512,45.605 400.917,43.2 403.88,43.2C406.843,43.2 409.248,45.605 409.248,48.568Z"/>
    <path d="M429.12,70.968L429.12,89.032C429.12,91.995 426.715,94.4 423.752,94.4C420.789,94.4 418.384,91.995 418.384,89.032L418.384,70.968C418.384,68.005 420.789,65.6 423.752,65.6C426.715,65.6 429.12,68.005 429.12,70.968Z"/>
    <path d="M448.992,54.168L448.992,105.832C448.992,108.795 446.587,111.2 443.624,111.2C440.661,111.2 438.256,108.795 438.256,105.832L438.256,54.168C438.256,51.205 440.661,48.8 443.624,48.8C446.587,48.8 448.992,51.205 448.992,54.168Z"/>
    <path d="M468.864,65.368L468.864,94.632C468.864,97.595 466.459,100 463.496,100C460.533,100 458.128,97.595 458.128,94.632L458.128,65.368C458.128,62.405 460.533,60 463.496,60C466.459,60 468.864,62.405 468.864,65.368Z"/>
    <path d="M488.752,54.168L488.752,105.832C488.752,108.795 486.347,111.2 483.384,111.2C480.421,111.2 478.016,108.795 478.016,105.832L478.016,54.168C478.016,51.205 480.421,48.8 483.384,48.8C486.347,48.8 488.752,51.205 488.752,54.168Z"/>
    <path d="M508.624,70.968L508.624,89.032C508.624,91.995 506.219,94.4 503.256,94.4C500.293,94.4 497.888,91.995 497.888,89.032L497.888,70.968C497.888,68.005 500.293,65.6 503.256,65.6C506.219,65.6 508.624,68.005 508.624,70.968Z"/>
    <path d="M528.496,42.968L528.496,117.032C528.496,119.995 526.091,122.4 523.128,122.4C520.165,122.4 517.76,119.995 517.76,117.032L517.76,42.968C517.76,40.005 520.165,37.6 523.128,37.6C526.091,37.6 528.496,40.005 528.496,42.968Z"/>
    <path d="M548.368,37.368L548.368,122.632C548.368,125.595 545.963,128 543,128C540.037,128 537.632,125.595 537.632,122.632L537.632,37.368C537.632,34.405 540.037,32 543,32C545.963,32 548.368,34.405 548.368,37.368Z"/>
    <path d="M568.24,65.368L568.24,94.632C568.24,97.595 565.835,100 562.872,100C559.909,100 557.504,97.595 557.504,94.632L557.504,65.368C557.504,62.405 559.909,60 562.872,60C565.835,60 568.24,62.405 568.24,65.368Z"/>
    <path d="M588.128,65.368L588.128,94.632C588.128,97.595 585.723,100 582.76,100C579.797,100 577.392,97.595 577.392,94.632L577.392,65.368C577.392,62.405 579.797,60 582.76,60C585.723,60 588.128,62.405 588.128,65.368Z"/>
    <path d="M608,76.568L608,83.432C608,86.395 605.595,88.8 602.632,88.8C599.669,88.8 597.264,86.395 597.264,83.432L597.264,76.568C597.264,73.605 599.669,71.2 602.632,71.2C605.595,71.2 608,73.605 608,76.568Z"/>
    <g transform="matrix(1,0,0,1,32,32)">
        <path d="M48,0C74.332,-0 96,21.668 96,48C96,74.332 74.332,96 48,96C21.668,96 0,74.332 0,48C-0,21.668 21.668,0 48,0M69.968,69.12C70.745,67.829 70.418,66.14 69.216,65.232C68.97,65.052 68.713,64.887 68.448,64.736C65.454,62.953 62.279,61.494 58.976,60.384C53.006,58.429 46.762,57.436 40.48,57.44C38.352,57.552 36.208,57.632 34.08,57.808C30.268,58.146 26.483,58.745 22.752,59.6C22.458,59.662 22.169,59.747 21.888,59.856C20.571,60.383 19.817,61.796 20.112,63.184C20.334,64.588 21.57,65.625 22.992,65.6C23.467,65.585 23.939,65.521 24.4,65.408C28.955,64.383 33.592,63.767 38.256,63.568C41.867,63.42 45.483,63.618 49.056,64.16C54.844,65.007 60.414,66.969 65.456,69.936C65.714,70.096 65.981,70.24 66.256,70.368C67.613,70.965 69.22,70.454 69.984,69.184M75.856,56C76.897,54.255 76.337,51.964 74.608,50.896L74.048,50.56C70.324,48.359 66.363,46.587 62.24,45.28C54.131,42.68 45.628,41.527 37.12,41.872C33.142,42.005 29.185,42.497 25.296,43.344C23.696,43.696 22.096,44.112 20.592,44.576C19.1,45.047 18.075,46.435 18.064,48C18.029,49.534 18.948,50.938 20.368,51.52C21.231,51.83 22.177,51.83 23.04,51.52C28.437,49.957 34.029,49.171 39.648,49.184C43.894,49.187 48.131,49.584 52.304,50.368C57.63,51.324 62.791,53.038 67.632,55.456C68.688,56 69.712,56.608 70.752,57.184C72.479,58.246 74.773,57.714 75.856,56M76.416,42.416C77.115,42.841 77.918,43.066 78.736,43.066C81.185,43.066 83.2,41.051 83.2,38.602C83.2,38.594 83.2,38.585 83.2,38.576C83.2,38.256 83.2,37.936 83.072,37.616C82.793,36.351 81.974,35.269 80.832,34.656C77.574,32.772 74.139,31.212 70.576,30C61.873,27.091 52.775,25.532 43.6,25.376C39.863,25.264 36.123,25.376 32.4,25.712C28.89,26.007 25.405,26.542 21.968,27.312C20.576,27.632 19.2,27.984 17.84,28.432C16.021,29.05 14.813,30.8 14.88,32.72C14.926,34.654 16.224,36.349 18.08,36.896C18.916,37.136 19.804,37.136 20.64,36.896C22.032,36.528 23.44,36.144 24.848,35.84C28.675,35.044 32.559,34.557 36.464,34.384C39.875,34.194 43.293,34.194 46.704,34.384C49.982,34.581 53.246,34.965 56.48,35.536C61.126,36.317 65.678,37.577 70.064,39.296C72.267,40.218 74.405,41.287 76.464,42.496" style="fill-rule:nonzero;"/>
    </g>
</svg>
